<svg
  width="174"
  height="173"
  viewBox="0 0 174 173"
  fill="none"
  xmlns="http://www.w3.org/2000/svg"
>
  <circle cx="87" cy="86.5001" r="86.5" fill="#5CB7E6" />
  <path
    d="M86.5 171.5L86.5 87.5L2.49998 87.5C2.49998 134 43 171.5 86.5 171.5Z"
    fill="white"
  />
  <path
    d="M86.5 2.5V87.5H170.5C170.5 36.0928 138.5 2.5 86.5 2.5Z"
    fill="white"
  />
  <circle
    cx="87"
    cy="86.5001"
    r="84.5"
    stroke="#5CB7E6"
    stroke-width="4"
  />
  <path
    d="M55.1277 35H53.9726L53.3953 36.0006L38.6606 61.5408L38.0825 62.5428L38.6627 63.5435L51.6407 85.9257L38.2644 109.287L37.6953 110.281L38.2645 111.275L52.8919 136.815L53.4681 137.821H54.6274H84.0079H85.1538L85.7333 136.833L98.5133 115.031H125.265H126.42L126.998 114.031L141.732 88.4906L142.309 87.4912L141.732 86.4917L126.998 60.9514L126.42 59.9509H125.265H100.096L86.3312 36.0033L85.7545 35H84.5973H55.1277Z"
    fill="white"
    stroke="white"
    stroke-width="4"
  />
  <path
    d="M84.5973 37H55.1277L40.3929 62.5403L53.9489 85.9194L40 110.281L54.6274 135.821H84.0079L97.3674 113.031H125.265L140 87.4912L125.265 61.9509H98.9391L84.5973 37Z"
    fill="#5CB7E6"
  />
  <path
    d="M82.8292 40.1434H56.896L44.1259 62.5403L56.896 84.7407L82.6327 84.9371L95.5993 62.3438L82.8292 40.1434Z"
    fill="white"
  />
  <path
    d="M123.989 65.0943H97.8579L84.9902 87.6876L97.8579 110.083L123.791 110.281L136.857 87.4895L123.989 65.0943Z"
    fill="white"
  />
  <path
    d="M81.4541 88.0805H56.5032L43.5366 110.281L56.5032 132.678H82.24L94.6172 111.067L81.4541 88.0805Z"
    fill="white"
  />
  <path
    d="M60.0121 43.4833H81.2129V47.3472H60.0121V43.4833Z"
    fill="#5CB7E6"
  />
  <path
    d="M77.869 45.4022L88.3976 63.8479L91.7433 61.929L81.2147 43.4833L77.869 45.4022Z"
    fill="#5CB7E6"
  />
  <path
    d="M132.927 87.4189L122.385 105.857L119.041 103.935L129.583 85.4975L132.927 87.4189Z"
    fill="#5CB7E6"
  />
  <path
    d="M122.387 101.994L101.186 101.979L101.183 105.843L122.384 105.858L122.387 101.994Z"
    fill="#5CB7E6"
  />
  <path
    d="M80.1792 129.534H58.9784L58.9784 125.67L80.1792 125.67V129.534Z"
    fill="#5CB7E6"
  />
  <path
    d="M62.3223 127.616L51.7938 109.17L48.448 111.089L58.9766 129.534L62.3223 127.616Z"
    fill="#5CB7E6"
  />
</svg>
